# Blender 3.5.1
# www.blender.org
o Cube
v 0.200000 0.000000 0.000000
v 0.000000 0.000000 1.000000
v 0.000000 0.000000 -1.000000
v 0.000000 1.000000 0.000000
v 0.000000 -1.000000 0.000000
v -0.200000 0.000000 0.000000
v 0.000000 0.200000 -0.200000
v 0.000000 -0.200000 -0.200000
v 0.000000 0.200000 0.200000
v 0.000000 -0.200000 0.200000
vn -0.7715 0.6172 0.1543
vn -0.7715 -0.6172 0.1543
vn 0.7715 -0.6172 0.1543
vn 0.7715 0.6172 0.1543
vn 0.7715 0.1543 0.6172
vn 0.7715 0.1543 -0.6172
vn 0.7715 0.6172 -0.1543
vn -0.7715 -0.1543 0.6172
vn 0.7715 -0.1543 0.6172
vn 0.7715 -0.6172 -0.1543
vn 0.7715 -0.1543 -0.6172
vn -0.7715 -0.1543 -0.6172
vn -0.7715 0.1543 0.6172
vn -0.7715 0.1543 -0.6172
vn -0.7715 0.6172 -0.1543
vn -0.7715 -0.6172 -0.1543
vt 0.000000 0.000000
vt 0.000000 0.000000
vt 0.000000 0.000000
vt 0.000000 0.000000
vt 0.000000 0.000000
vt 0.000000 0.000000
vt 0.000000 0.000000
vt 0.000000 0.000000
vt 0.000000 0.000000
vt 0.000000 0.000000
s 0
f 1/1/1 3/3/1 8/8/1
f 3/3/2 1/1/2 7/7/2
f 6/6/3 3/3/3 7/7/3
f 3/3/4 6/6/4 8/8/4
f 6/6/5 5/5/5 8/8/5
f 5/5/6 6/6/6 10/10/6
f 6/6/7 2/2/7 10/10/7
f 1/1/8 4/4/8 7/7/8
f 6/6/9 7/7/9 4/4/9
f 2/2/10 6/6/10 9/9/10
f 4/4/11 9/9/11 6/6/11
f 1/1/12 9/9/12 4/4/12
f 1/1/13 8/8/13 5/5/13
f 10/10/14 1/1/14 5/5/14
f 2/2/15 1/1/15 10/10/15
f 1/1/16 2/2/16 9/9/16
